<?xml version="1.0" standalone="no"?>
<!DOCTYPE svg PUBLIC "-//W3C//DTD SVG 20010904//EN"
 "http://www.w3.org/TR/2001/REC-SVG-20010904/DTD/svg10.dtd">
<svg version="1.0" xmlns="http://www.w3.org/2000/svg"
 width="716.000000pt" height="716.000000pt" viewBox="0 0 716.000000 716.000000"
 preserveAspectRatio="xMidYMid meet">
<metadata>
Created by potrace 1.11, written by Peter Selinger 2001-2013
</metadata>
<g transform="translate(0.000000,716.000000) scale(0.100000,-0.100000)"
fill="#000000" stroke="none">
<path d="M2346 7153 c-1 -1 -278 -3 -615 -3 -675 -2 -678 -2 -748 -63 -20 -17
-47 -54 -60 -82 -23 -49 -23 -54 -20 -345 3 -278 4 -297 24 -335 27 -51 67
-91 118 -118 38 -20 58 -21 475 -24 1088 -8 1062 -8 1098 -27 49 -26 282 -265
303 -310 17 -38 18 -174 18 -2838 0 -1539 3 -2808 6 -2821 24 -84 83 -147 159
-171 44 -14 110 -16 446 -16 373 1 397 2 438 21 58 27 115 88 132 141 11 36
14 514 15 2853 1 2634 2 2812 18 2842 9 18 75 90 146 161 106 105 137 131 173
141 31 9 256 13 810 16 540 3 779 7 809 15 53 15 109 53 136 94 42 65 45 92
41 399 -3 288 -4 293 -28 342 -25 49 -101 118 -138 125 -19 3 -3752 6 -3756 3z"/>
</g>
</svg>
