<svg id="Logo" xmlns="http://www.w3.org/2000/svg" width="268.27" height="357.97" viewBox="0 0 268.27 357.97"><defs><style>.cls-1,.cls-2{fill:blue;stroke:#000;stroke-miterlimit:10;}.cls-1{stroke-width:3px;}</style></defs><title>To-Do-favicon</title><path class="cls-1" d="M338.91,416.53l-244,.59A10.56,10.56,0,0,0,84.4,427.75l0.18,24.09a10.56,10.56,0,0,0,10.5,10.48l69.67,0.37a10.56,10.56,0,0,1,7.41,3.09l11,11a10.56,10.56,0,0,1,3.09,7.46V761.07a10.56,10.56,0,0,0,10.55,10.43h35.64A10.56,10.56,0,0,0,243,760.82h0V484.16a10.56,10.56,0,0,1,3-7.42l10.46-10.58A10.56,10.56,0,0,1,264,463l75.22-.44a10.56,10.56,0,0,0,10.49-10.63L349.49,427A10.56,10.56,0,0,0,338.91,416.53Z" transform="translate(-82.9 -415.03)"/><path class="cls-2" d="M242.13,465" transform="translate(-82.9 -415.03)"/><path class="cls-2" d="M241.25,746" transform="translate(-82.9 -415.03)"/><path class="cls-2" d="M202.83,746" transform="translate(-82.9 -415.03)"/></svg>