<svg id="Logo" xmlns="http://www.w3.org/2000/svg" width="833.1" height="358.46" viewBox="0 0 833.1 358.46"><defs><style>.cls-1,.cls-2{fill:blue;stroke:#000;stroke-miterlimit:10;}.cls-1{stroke-width:3px;}</style></defs><title>To-Do</title><path class="cls-1" d="M338.91,416.53l-244,.59A10.56,10.56,0,0,0,84.4,427.75l0.18,24.09a10.56,10.56,0,0,0,10.5,10.48l69.67,0.37a10.56,10.56,0,0,1,7.41,3.09l11,11a10.56,10.56,0,0,1,3.09,7.46V761.07a10.56,10.56,0,0,0,10.55,10.43h35.64A10.56,10.56,0,0,0,243,760.82h0V484.16a10.56,10.56,0,0,1,3-7.42l10.46-10.58A10.56,10.56,0,0,1,264,463l75.22-.44a10.56,10.56,0,0,0,10.49-10.63L349.49,427A10.56,10.56,0,0,0,338.91,416.53Z" transform="translate(-82.9 -415)"/><path class="cls-2" d="M242.13,465" transform="translate(-82.9 -415)"/><path class="cls-2" d="M241.25,746" transform="translate(-82.9 -415)"/><path class="cls-2" d="M202.83,746" transform="translate(-82.9 -415)"/><path class="cls-1" d="M279.67,590.78V760.94a10.56,10.56,0,0,0,10.56,10.56H457.61a10.56,10.56,0,0,0,10.56-10.56V590.78a10.56,10.56,0,0,0-10.56-10.56H290.22A10.56,10.56,0,0,0,279.67,590.78ZM409.74,722.24H338.1a10.56,10.56,0,0,1-10.56-10.56V640a10.56,10.56,0,0,1,10.56-10.56h71.64A10.56,10.56,0,0,1,420.29,640v71.64A10.56,10.56,0,0,1,409.74,722.24Z" transform="translate(-82.9 -415)"/><path class="cls-1" d="M633.85,416.5H510.06a10.56,10.56,0,0,0-10.56,10.56V761.41A10.56,10.56,0,0,0,510.09,772l122.7-.45a10.56,10.56,0,0,0,7.35-3l48.09-47.17a10.56,10.56,0,0,0,3.16-7.48l1.25-239.39a10.56,10.56,0,0,0-3.16-7.59l-48.24-47.35A10.56,10.56,0,0,0,633.85,416.5Zm20.9,260.09-28.69,28.09a10.56,10.56,0,0,1-7.35,3l-73.62.27a10.56,10.56,0,0,1-10.59-10.56V490.06a10.56,10.56,0,0,1,10.56-10.56h74.2a10.56,10.56,0,0,1,7.37,3l28.83,28.08a10.56,10.56,0,0,1,3.19,7.61L657.92,669.1A10.56,10.56,0,0,1,654.75,676.59Z" transform="translate(-82.9 -415)"/><path class="cls-1" d="M726,590.78V760.94a10.56,10.56,0,0,0,10.56,10.56H903.94a10.56,10.56,0,0,0,10.56-10.56V590.78a10.56,10.56,0,0,0-10.56-10.56H736.56A10.56,10.56,0,0,0,726,590.78ZM856.07,722.24H784.43a10.56,10.56,0,0,1-10.56-10.56V640a10.56,10.56,0,0,1,10.56-10.56h71.64A10.56,10.56,0,0,1,866.63,640v71.64A10.56,10.56,0,0,1,856.07,722.24Z" transform="translate(-82.9 -415)"/></svg>